<?xml version="1.0" encoding="utf-8"?>
<!-- Generator: Adobe Illustrator 24.1.0, SVG Export Plug-In . SVG Version: 6.00 Build 0)  -->
<svg version="1.1" xmlns="http://www.w3.org/2000/svg" xmlns:xlink="http://www.w3.org/1999/xlink" x="0px" y="0px"
	 viewBox="0 0 566.93 283.46" style="enable-background:new 0 0 566.93 283.46;" xml:space="preserve">
<style type="text/css">
	.st0{fill:#3B9DD8;}
	.st1{fill:#FFFFFF;}
	.st2{fill:#DE2C6C;}
	.st3{display:none;}
	.st4{display:inline;}
	.st5{display:inline;fill:#DE2C6C;}
	.st6{fill:#706F6F;}
</style>
<g id="Layer_1">
	<g>
		<g>
			<path d="M249.73,131.02l-0.61,3.35c-1.71,9.63-7.37,14.13-14.81,14.13c-7.85,0-13.58-4.51-11.74-15.02l3.28-18.57
				c1.71-9.56,7.03-14.13,14.81-14.13c7.51,0,13.58,4.57,11.81,14.68l-0.55,2.87l-8.12,0.55l0.41-2.8c0.82-4.16-0.75-5.87-3.41-5.87
				c-2.66,0-4.78,1.71-5.53,5.87l-3,17c-0.75,4.37,0.82,6.01,3.48,6.01c2.66,0,4.71-1.64,5.53-6.01l0.48-2.66L249.73,131.02z"/>
			<path d="M285.91,115.73l-3.28,18.64c-1.64,9.63-7.71,14.13-15.63,14.13c-7.85,0-14.27-4.51-12.49-15.02l3.28-18.57
				c1.71-9.56,7.78-14.13,15.7-14.13C281.27,100.78,287.75,105.36,285.91,115.73z M267.27,116.07l-3.07,17
				c-0.75,4.37,0.82,6.01,3.48,6.01c2.66,0,4.78-1.64,5.53-6.01l3-17c0.75-4.16-0.82-5.87-3.41-5.87
				C270.14,110.2,267.96,111.91,267.27,116.07z"/>
			<path d="M312.4,101.46h9.01l-17.2,46.35h-11.4l-1.23-46.35h10.51l-0.2,30.17L312.4,101.46z"/>
			<path d="M335.96,101.46l-8.19,46.35h-9.56l8.19-46.35H335.96z"/>
			<path d="M335.07,147.82l8.19-46.35h12.49c7.85,0,13.58,4.16,11.74,14.4l-3.21,18.23c-1.71,9.63-6.83,13.72-14.68,13.72H335.07z
				 M349.34,138.81c2.66,0,4.78-1.64,5.53-6.01l2.94-16.45c0.68-4.16-0.82-5.87-3.48-5.87h-3l-5.05,28.33H349.34z"/>
			<path d="M372.54,123.21h17.48l-1.3,7.03h-17.41L372.54,123.21z"/>
			<path d="M399.86,105.7l8.4-4.23h2.05l-8.19,46.35h-9.69L399.86,105.7z"/>
			<path d="M428.88,128.16c-1.5,1.91-3.62,3.69-7.3,3.69c-5.94,0-9.69-3.55-8.4-11.13l1.16-6.14c1.57-9.28,6.28-13.79,14.4-13.79
				c8.94,0,13.72,4.51,12.08,13.79l-3.35,18.84c-1.64,9.22-6.08,15.09-15.09,15.09c-9.08,0-12.83-4.64-11.54-11.81l0.27-1.77
				l8.12-0.61l-0.07,0.82c-0.55,2.87,0.41,4.71,3.28,4.71c2.87,0,4.85-2.32,5.53-6.21L428.88,128.16z M431.13,114.84
				c0.61-3.48-0.48-5.46-3.28-5.46c-2.87,0-4.57,1.98-5.26,5.46l-0.82,4.71c-0.55,3.28,0.34,5.46,3.28,5.46
				c2.93,0,4.64-2.19,5.19-5.46L431.13,114.84z"/>
		</g>
	</g>
	<g>
		<path class="st0" d="M161.09,101.93v4.64c0.22,0.01,1.29,0.02,2.56-0.18c1.42-0.22,2.33,1.49,2.17,2.44
			c-0.19,1.12-1.25,3.3-1.55,6.22c-0.08,0.81,0.2,1.04,0.34,1.11c0.99,0.14,1.97,0.33,2.92,0.57c0.17-0.02,0.5-0.15,0.72-0.89
			c0.84-2.82,0.69-5.24,0.94-6.34c0.22-0.94,1.71-2.17,2.94-1.43c1.22,0.75,2.34,1.16,2.34,1.16s1.08,0.5,2.47,0.83
			c1.39,0.34,1.58,2.26,1.07,3.09c-0.6,0.96-2.42,2.57-3.82,5.15c-0.38,0.71-0.22,1.04-0.11,1.16c0.85,0.5,1.68,1.05,2.47,1.65
			c0.15,0.05,0.52,0.08,1.02-0.55c1.85-2.28,2.64-4.58,3.3-5.5c0.56-0.79,2.42-1.35,3.26-0.19c0.84,1.16,1.71,1.97,1.71,1.97
			s0.81,0.87,1.97,1.71c1.16,0.84,0.59,2.7-0.19,3.26c-0.92,0.66-3.22,1.45-5.5,3.3c-0.62,0.5-0.6,0.87-0.55,1.02
			c0.6,0.79,1.14,1.61,1.65,2.47c0.12,0.11,0.45,0.27,1.16-0.11c2.58-1.4,4.19-3.22,5.15-3.82c0.82-0.51,2.75-0.33,3.09,1.07
			c0.34,1.39,0.83,2.47,0.83,2.47s0.41,1.11,1.16,2.34c0.75,1.22-0.48,2.72-1.43,2.94c-1.1,0.26-3.53,0.11-6.34,0.94
			c-0.75,0.22-0.88,0.55-0.89,0.72c0.25,0.95,0.44,1.93,0.57,2.92c0.07,0.14,0.31,0.43,1.11,0.34c2.92-0.31,5.11-1.37,6.22-1.55
			c0.96-0.16,2.66,0.75,2.44,2.17c-0.22,1.42-0.18,2.6-0.18,2.6s-0.05,1.19,0.18,2.6c0.22,1.42-1.49,2.33-2.44,2.17
			c-1.12-0.19-3.3-1.25-6.22-1.55c-0.81-0.08-1.04,0.2-1.11,0.34c-0.14,0.99-0.33,1.97-0.57,2.92c0.02,0.17,0.15,0.5,0.89,0.72
			c2.82,0.84,5.24,0.69,6.34,0.94c0.94,0.22,2.17,1.71,1.43,2.94c-0.75,1.22-1.16,2.34-1.16,2.34s-0.5,1.08-0.83,2.47
			c-0.34,1.39-2.26,1.58-3.09,1.07c-0.96-0.6-2.57-2.42-5.15-3.82c-0.71-0.38-1.04-0.22-1.16-0.11c-0.5,0.85-1.05,1.68-1.65,2.47
			c-0.05,0.15-0.08,0.52,0.55,1.02c2.28,1.85,4.58,2.64,5.5,3.3c0.79,0.56,1.35,2.42,0.19,3.26c-1.16,0.84-1.97,1.71-1.97,1.71
			s-0.87,0.81-1.71,1.97c-0.84,1.16-2.7,0.59-3.26-0.19c-0.66-0.92-1.45-3.22-3.3-5.5c-0.5-0.62-0.87-0.6-1.02-0.55
			c-0.79,0.6-1.61,1.14-2.47,1.65c-0.11,0.12-0.27,0.45,0.11,1.16c1.4,2.58,3.22,4.19,3.82,5.15c0.51,0.82,0.33,2.75-1.07,3.09
			c-1.39,0.34-2.47,0.83-2.47,0.83s-1.11,0.41-2.34,1.16c-1.22,0.75-2.72-0.48-2.94-1.43c-0.26-1.1-0.11-3.53-0.94-6.34
			c-0.22-0.75-0.55-0.88-0.72-0.89c-0.95,0.25-1.93,0.44-2.92,0.57c-0.14,0.07-0.43,0.31-0.34,1.11c0.31,2.92,1.37,5.11,1.55,6.22
			c0.16,0.96-0.75,2.66-2.17,2.44c-1.26-0.2-2.34-0.18-2.56-0.18v4.93h37.23l14.71-79.68H161.09z"/>
		<path class="st1" d="M163.65,176.86c1.42,0.22,2.33-1.49,2.17-2.44c-0.19-1.12-1.25-3.3-1.55-6.22c-0.08-0.81,0.2-1.04,0.34-1.11
			c0.99-0.14,1.97-0.33,2.92-0.57c0.17,0.02,0.5,0.15,0.72,0.89c0.84,2.82,0.69,5.24,0.94,6.34c0.22,0.94,1.71,2.17,2.94,1.43
			c1.22-0.75,2.34-1.16,2.34-1.16s1.08-0.5,2.47-0.83c1.39-0.34,1.58-2.26,1.07-3.09c-0.6-0.96-2.42-2.57-3.82-5.15
			c-0.38-0.71-0.22-1.04-0.11-1.16c0.85-0.5,1.68-1.05,2.47-1.65c0.15-0.05,0.52-0.08,1.02,0.55c1.85,2.28,2.64,4.58,3.3,5.5
			c0.56,0.79,2.42,1.35,3.26,0.19c0.84-1.16,1.71-1.97,1.71-1.97s0.81-0.87,1.97-1.71c1.16-0.84,0.59-2.7-0.19-3.26
			c-0.92-0.66-3.22-1.45-5.5-3.3c-0.62-0.5-0.6-0.87-0.55-1.02c0.6-0.79,1.14-1.61,1.65-2.47c0.12-0.11,0.45-0.27,1.16,0.11
			c2.58,1.4,4.19,3.22,5.15,3.82c0.82,0.51,2.75,0.33,3.09-1.07c0.34-1.39,0.83-2.47,0.83-2.47s0.41-1.11,1.16-2.34
			c0.75-1.22-0.48-2.72-1.43-2.94c-1.1-0.26-3.53-0.11-6.34-0.94c-0.75-0.22-0.88-0.55-0.89-0.72c0.25-0.95,0.44-1.93,0.57-2.92
			c0.07-0.14,0.31-0.43,1.11-0.34c2.92,0.31,5.11,1.37,6.22,1.55c0.96,0.16,2.66-0.75,2.44-2.17c-0.22-1.42-0.18-2.6-0.18-2.6
			s-0.05-1.19,0.18-2.6c0.22-1.42-1.49-2.33-2.44-2.17c-1.12,0.19-3.3,1.25-6.22,1.55c-0.81,0.08-1.04-0.2-1.11-0.34
			c-0.14-0.99-0.33-1.97-0.57-2.92c0.02-0.17,0.15-0.5,0.89-0.72c2.82-0.84,5.24-0.69,6.34-0.94c0.94-0.22,2.17-1.71,1.43-2.94
			c-0.75-1.22-1.16-2.34-1.16-2.34s-0.5-1.08-0.83-2.47c-0.34-1.39-2.26-1.58-3.09-1.07c-0.96,0.6-2.57,2.42-5.15,3.82
			c-0.71,0.38-1.04,0.22-1.16,0.11c-0.5-0.85-1.05-1.68-1.65-2.47c-0.05-0.15-0.08-0.52,0.55-1.02c2.28-1.85,4.58-2.64,5.5-3.3
			c0.79-0.56,1.35-2.42,0.19-3.26c-1.16-0.84-1.97-1.71-1.97-1.71s-0.87-0.81-1.71-1.97c-0.84-1.16-2.7-0.59-3.26,0.19
			c-0.66,0.92-1.45,3.22-3.3,5.5c-0.5,0.62-0.87,0.6-1.02,0.55c-0.79-0.6-1.61-1.14-2.47-1.65c-0.11-0.12-0.27-0.45,0.11-1.16
			c1.4-2.58,3.22-4.19,3.82-5.15c0.51-0.82,0.33-2.75-1.07-3.09c-1.39-0.34-2.47-0.83-2.47-0.83s-1.11-0.41-2.34-1.16
			c-1.22-0.75-2.72,0.48-2.94,1.43c-0.26,1.1-0.11,3.53-0.94,6.34c-0.22,0.75-0.55,0.88-0.72,0.89c-0.95-0.25-1.93-0.44-2.92-0.57
			c-0.14-0.07-0.43-0.31-0.34-1.11c0.31-2.92,1.37-5.11,1.55-6.22c0.16-0.96-0.75-2.66-2.17-2.44c-1.26,0.2-2.34,0.18-2.56,0.18
			v70.11C161.31,176.67,162.38,176.66,163.65,176.86z"/>
	</g>
	<path class="st2" d="M158.54,177.01c-1.42,0.22-2.33-1.49-2.17-2.44c0.19-1.12,1.25-3.3,1.55-6.22c0.08-0.81-0.2-1.04-0.34-1.11
		c-0.99-0.14-1.97-0.33-2.92-0.57c-0.17,0.02-0.5,0.15-0.72,0.89c-0.84,2.82-0.69,5.24-0.94,6.34c-0.22,0.94-1.71,2.17-2.94,1.43
		c-1.22-0.75-2.34-1.16-2.34-1.16s-1.08-0.5-2.47-0.83c-1.39-0.34-1.58-2.26-1.07-3.09c0.6-0.96,2.42-2.57,3.82-5.15
		c0.38-0.71,0.22-1.04,0.11-1.16c-0.85-0.5-1.68-1.05-2.47-1.65c-0.15-0.05-0.52-0.08-1.02,0.55c-1.85,2.28-2.64,4.58-3.3,5.5
		c-0.56,0.79-2.42,1.35-3.26,0.19c-0.84-1.16-1.71-1.97-1.71-1.97s-0.81-0.87-1.97-1.71c-1.16-0.84-0.59-2.7,0.19-3.26
		c0.92-0.66,3.22-1.45,5.5-3.3c0.62-0.5,0.6-0.87,0.55-1.02c-0.6-0.79-1.14-1.61-1.65-2.47c-0.12-0.11-0.45-0.27-1.16,0.11
		c-2.58,1.4-4.19,3.22-5.15,3.82c-0.82,0.51-2.75,0.33-3.09-1.07c-0.34-1.39-0.83-2.47-0.83-2.47s-0.41-1.11-1.16-2.34
		c-0.75-1.22,0.48-2.72,1.43-2.94c1.1-0.26,3.53-0.11,6.34-0.94c0.75-0.22,0.88-0.55,0.89-0.72c-0.25-0.95-0.44-1.93-0.57-2.92
		c-0.07-0.14-0.31-0.43-1.11-0.34c-2.92,0.31-5.11,1.37-6.22,1.55c-0.96,0.16-2.66-0.75-2.44-2.17c0.22-1.42,0.18-2.6,0.18-2.6
		s0.05-1.19-0.18-2.6c-0.22-1.42,1.49-2.33,2.44-2.17c1.12,0.19,3.3,1.25,6.22,1.55c0.81,0.08,1.04-0.2,1.11-0.34
		c0.14-0.99,0.33-1.97,0.57-2.92c-0.02-0.17-0.15-0.5-0.89-0.72c-2.82-0.84-5.24-0.69-6.34-0.94c-0.94-0.22-2.17-1.71-1.43-2.94
		c0.75-1.22,1.16-2.34,1.16-2.34s0.5-1.08,0.83-2.47c0.34-1.39,2.26-1.58,3.09-1.07c0.96,0.6,2.57,2.42,5.15,3.82
		c0.71,0.38,1.04,0.22,1.16,0.11c0.5-0.85,1.05-1.68,1.65-2.47c0.05-0.15,0.08-0.52-0.55-1.02c-2.28-1.85-4.58-2.64-5.5-3.3
		c-0.79-0.56-1.35-2.42-0.19-3.26c1.16-0.84,1.97-1.71,1.97-1.71s0.87-0.81,1.71-1.97c0.84-1.16,2.7-0.59,3.26,0.19
		c0.66,0.92,1.45,3.22,3.3,5.5c0.5,0.62,0.87,0.6,1.02,0.55c0.79-0.6,1.61-1.14,2.47-1.65c0.11-0.12,0.27-0.45-0.11-1.16
		c-1.4-2.58-3.22-4.19-3.82-5.15c-0.51-0.82-0.33-2.75,1.07-3.09c1.39-0.34,2.47-0.83,2.47-0.83s1.11-0.41,2.34-1.16
		c1.22-0.75,2.72,0.48,2.94,1.43c0.26,1.1,0.11,3.53,0.94,6.34c0.22,0.75,0.55,0.88,0.72,0.89c0.95-0.25,1.93-0.44,2.92-0.57
		c0.14-0.07,0.43-0.31,0.34-1.11c-0.31-2.92-1.37-5.11-1.55-6.22c-0.16-0.96,0.75-2.66,2.17-2.44c1.26,0.2,2.34,0.18,2.56,0.18
		v70.11C160.88,176.82,159.8,176.81,158.54,177.01z"/>
	<g>
		<path class="st2" d="M215.98,181.98l4.92-27.84h6.48c4.26,0,7.05,2.54,6.03,8.16l-2.05,11.68c-0.98,5.49-3.81,8-8.12,8H215.98z
			 M223.24,178.83c2.17,0,4.06-1.48,4.72-5.08l2.01-11.36c0.57-3.57-0.74-5.08-2.91-5.08h-3.28L220,178.83H223.24z"/>
		<path class="st2" d="M234.6,175.96l1.48-8.2c0.74-4.14,2.87-6.27,5.9-6.27c1.85,0,3.32,1.02,3.65,2.62l0.41-2.21h3.28l-3.57,20.09
			h-3.28l0.41-1.97c-0.9,1.56-2.25,2.38-4.1,2.38C235.7,182.39,233.86,180.18,234.6,175.96z M243.54,175.87l1.35-7.79
			c0.45-2.34-0.41-3.61-2.13-3.61c-1.72,0-3.03,1.27-3.44,3.57l-1.39,7.87c-0.41,2.25,0.49,3.49,2.25,3.49
			C241.85,179.4,243.12,178.17,243.54,175.87z"/>
		<path class="st2" d="M258.01,181.78c-0.86,0.37-1.89,0.62-3.12,0.62c-2.75,0-4.06-1.56-3.53-4.84l2.3-12.96h-2.21l0.49-2.71
			c2.67,0,3.57-0.12,4.8-6.56h2.17l-1.19,6.56h3.69l-0.49,2.71h-3.94l-2.17,12.38c-0.33,1.76,0.29,2.34,1.23,2.34
			c0.9,0,1.8-0.37,2.54-0.82L258.01,181.78z"/>
		<path class="st2" d="M261.33,175.96l1.48-8.2c0.74-4.14,2.87-6.27,5.9-6.27c1.85,0,3.32,1.02,3.65,2.62l0.41-2.21h3.28
			l-3.57,20.09h-3.28l0.41-1.97c-0.9,1.56-2.25,2.38-4.1,2.38C262.44,182.39,260.59,180.18,261.33,175.96z M270.27,175.87l1.35-7.79
			c0.45-2.34-0.41-3.61-2.13-3.61c-1.72,0-3.03,1.27-3.44,3.57l-1.39,7.87c-0.41,2.25,0.49,3.49,2.25,3.49
			C268.59,179.4,269.86,178.17,270.27,175.87z"/>
		<path class="st2" d="M286.83,181.98h-3.44l4.92-27.84h6.64c3.94,0,6.31,2.09,5.58,6.35l-0.9,4.96c-0.7,4.06-3.08,6.15-6.93,6.15
			h-4.06L286.83,181.98z M296.22,165.13l0.78-4.39c0.41-2.38-0.74-3.44-2.87-3.44h-2.95l-2.01,11.36h3.03
			C294.29,168.66,295.81,167.59,296.22,165.13z"/>
		<path class="st2" d="M300.77,175.79l1.39-7.79c0.78-4.39,3.44-6.52,6.89-6.52c3.48,0,6.11,2.13,5.29,6.64l-1.39,7.83
			c-0.74,4.35-3.4,6.44-6.85,6.44C302.66,182.39,299.99,180.3,300.77,175.79z M309.67,175.92l1.39-7.87
			c0.41-2.3-0.45-3.57-2.21-3.57c-1.68,0-2.95,1.27-3.36,3.61l-1.39,7.79c-0.41,2.3,0.45,3.53,2.13,3.53
			C307.94,179.4,309.3,178.17,309.67,175.92z"/>
		<path class="st2" d="M319.18,161.89h3.32l-0.41,2.46c1.11-2.09,2.75-2.87,5.49-2.87l-0.74,3.81c-0.37-0.21-1.27-0.33-1.6-0.33
			c-2.71,0-3.65,2.01-4.35,5.86l-1.93,11.15h-3.32L319.18,161.89z"/>
		<path class="st2" d="M334.68,181.78c-0.86,0.37-1.89,0.62-3.12,0.62c-2.75,0-4.06-1.56-3.53-4.84l2.3-12.96h-2.21l0.49-2.71
			c2.67,0,3.57-0.12,4.8-6.56h2.17l-1.19,6.56h3.69l-0.49,2.71h-3.94l-2.17,12.38c-0.33,1.76,0.29,2.34,1.23,2.34
			c0.9,0,1.8-0.37,2.54-0.82L334.68,181.78z"/>
		<path class="st2" d="M338,175.96l1.48-8.2c0.74-4.14,2.87-6.27,5.9-6.27c1.84,0,3.32,1.02,3.65,2.62l0.41-2.21h3.28l-3.57,20.09
			h-3.28l0.41-1.97c-0.9,1.56-2.25,2.38-4.1,2.38C339.1,182.39,337.26,180.18,338,175.96z M346.93,175.87l1.35-7.79
			c0.45-2.34-0.41-3.61-2.13-3.61c-1.72,0-3.03,1.27-3.44,3.57l-1.39,7.87c-0.41,2.25,0.49,3.49,2.25,3.49
			C345.25,179.4,346.53,178.17,346.93,175.87z"/>
		<path class="st2" d="M356.61,181.98h-1.52c-1.35,0-1.68-0.57-1.43-1.93l4.55-25.91h3.32L356.61,181.98z"/>
	</g>
</g>
<g id="Layer_2" class="st3">
	<g class="st4">
		<path class="st0" d="M73.53,102.3v3.34c0.16,0,0.93,0.01,1.84-0.13c1.02-0.16,1.68,1.07,1.56,1.76c-0.13,0.81-0.9,2.38-1.12,4.49
			c-0.06,0.58,0.14,0.75,0.25,0.8c0.71,0.1,1.42,0.24,2.1,0.41c0.12-0.01,0.36-0.11,0.52-0.64c0.6-2.03,0.5-3.78,0.68-4.57
			c0.16-0.68,1.24-1.57,2.12-1.03c0.88,0.54,1.68,0.84,1.68,0.84s0.78,0.36,1.78,0.6c1,0.24,1.14,1.63,0.77,2.22
			c-0.43,0.69-1.74,1.85-2.75,3.72c-0.28,0.51-0.16,0.75-0.08,0.83c0.62,0.36,1.21,0.76,1.78,1.19c0.11,0.04,0.38,0.05,0.74-0.39
			c1.33-1.65,1.9-3.3,2.38-3.96c0.41-0.57,1.74-0.98,2.35-0.14c0.61,0.84,1.24,1.42,1.24,1.42s0.58,0.63,1.42,1.24
			c0.84,0.61,0.43,1.94-0.14,2.35c-0.66,0.47-2.32,1.05-3.96,2.38c-0.45,0.36-0.43,0.63-0.39,0.74c0.43,0.57,0.82,1.16,1.19,1.78
			c0.09,0.08,0.33,0.2,0.83-0.08c1.86-1.01,3.02-2.32,3.72-2.75c0.59-0.37,1.98-0.23,2.22,0.77c0.24,1,0.6,1.78,0.6,1.78
			s0.3,0.8,0.84,1.68c0.54,0.88-0.35,1.96-1.03,2.12c-0.8,0.18-2.54,0.08-4.57,0.68c-0.54,0.16-0.63,0.4-0.64,0.52
			c0.18,0.69,0.31,1.39,0.41,2.1c0.05,0.1,0.22,0.31,0.8,0.25c2.11-0.22,3.68-0.99,4.49-1.12c0.69-0.11,1.92,0.54,1.76,1.56
			c-0.16,1.02-0.13,1.87-0.13,1.87s-0.03,0.85,0.13,1.87c0.16,1.02-1.07,1.68-1.76,1.56c-0.81-0.13-2.38-0.9-4.49-1.12
			c-0.58-0.06-0.75,0.14-0.8,0.25c-0.1,0.71-0.24,1.42-0.41,2.1c0.01,0.12,0.11,0.36,0.64,0.52c2.03,0.6,3.78,0.5,4.57,0.68
			c0.68,0.16,1.57,1.24,1.03,2.12c-0.54,0.88-0.84,1.68-0.84,1.68s-0.36,0.78-0.6,1.78s-1.63,1.14-2.22,0.77
			c-0.69-0.43-1.85-1.74-3.72-2.75c-0.51-0.28-0.75-0.16-0.83-0.08c-0.36,0.62-0.76,1.21-1.19,1.78c-0.04,0.11-0.05,0.38,0.39,0.74
			c1.65,1.33,3.3,1.9,3.96,2.38c0.57,0.41,0.98,1.74,0.14,2.35c-0.84,0.61-1.42,1.24-1.42,1.24s-0.63,0.58-1.24,1.42
			c-0.61,0.84-1.94,0.43-2.35-0.14c-0.47-0.66-1.05-2.32-2.38-3.96c-0.36-0.45-0.63-0.43-0.74-0.39c-0.57,0.43-1.16,0.82-1.78,1.19
			c-0.08,0.09-0.2,0.33,0.08,0.83c1.01,1.86,2.32,3.02,2.75,3.72c0.37,0.59,0.23,1.98-0.77,2.22c-1,0.24-1.78,0.6-1.78,0.6
			s-0.8,0.3-1.68,0.84c-0.88,0.54-1.96-0.35-2.12-1.03c-0.18-0.8-0.08-2.54-0.68-4.57c-0.16-0.54-0.4-0.63-0.52-0.64
			c-0.69,0.18-1.39,0.31-2.1,0.41c-0.1,0.05-0.31,0.22-0.25,0.8c0.22,2.11,0.99,3.68,1.12,4.49c0.11,0.69-0.54,1.92-1.56,1.76
			c-0.91-0.14-1.69-0.13-1.84-0.13v3.56h26.83l10.6-57.43H73.53z"/>
		<path class="st1" d="M75.37,156.3c1.02,0.16,1.68-1.07,1.56-1.76c-0.13-0.81-0.9-2.38-1.12-4.49c-0.06-0.58,0.14-0.75,0.25-0.8
			c0.71-0.1,1.42-0.24,2.1-0.41c0.12,0.01,0.36,0.11,0.52,0.64c0.6,2.03,0.5,3.78,0.68,4.57c0.16,0.68,1.24,1.57,2.12,1.03
			c0.88-0.54,1.68-0.84,1.68-0.84s0.78-0.36,1.78-0.6c1-0.24,1.14-1.63,0.77-2.22c-0.43-0.69-1.74-1.85-2.75-3.72
			c-0.28-0.51-0.16-0.75-0.08-0.83c0.62-0.36,1.21-0.76,1.78-1.19c0.11-0.04,0.38-0.05,0.74,0.39c1.33,1.65,1.9,3.3,2.38,3.96
			c0.41,0.57,1.74,0.98,2.35,0.14c0.61-0.84,1.24-1.42,1.24-1.42s0.58-0.63,1.42-1.24c0.84-0.61,0.43-1.94-0.14-2.35
			c-0.66-0.47-2.32-1.05-3.96-2.38c-0.45-0.36-0.43-0.63-0.39-0.74c0.43-0.57,0.82-1.16,1.19-1.78c0.09-0.08,0.33-0.2,0.83,0.08
			c1.86,1.01,3.02,2.32,3.72,2.75c0.59,0.37,1.98,0.23,2.22-0.77s0.6-1.78,0.6-1.78s0.3-0.8,0.84-1.68
			c0.54-0.88-0.35-1.96-1.03-2.12c-0.8-0.18-2.54-0.08-4.57-0.68c-0.54-0.16-0.63-0.4-0.64-0.52c0.18-0.69,0.31-1.39,0.41-2.1
			c0.05-0.1,0.22-0.31,0.8-0.25c2.11,0.22,3.68,0.99,4.49,1.12c0.69,0.11,1.92-0.54,1.76-1.56c-0.16-1.02-0.13-1.87-0.13-1.87
			s-0.03-0.85,0.13-1.87c0.16-1.02-1.07-1.68-1.76-1.56c-0.81,0.13-2.38,0.9-4.49,1.12c-0.58,0.06-0.75-0.14-0.8-0.25
			c-0.1-0.72-0.24-1.42-0.41-2.1c0.01-0.12,0.11-0.36,0.64-0.52c2.03-0.6,3.78-0.5,4.57-0.68c0.68-0.16,1.57-1.24,1.03-2.12
			c-0.54-0.88-0.84-1.68-0.84-1.68s-0.36-0.78-0.6-1.78c-0.24-1-1.63-1.14-2.22-0.77c-0.69,0.43-1.85,1.74-3.72,2.75
			c-0.51,0.28-0.75,0.16-0.83,0.08c-0.36-0.62-0.76-1.21-1.19-1.78c-0.04-0.11-0.05-0.38,0.39-0.74c1.65-1.33,3.3-1.9,3.96-2.38
			c0.57-0.41,0.98-1.74,0.14-2.35c-0.84-0.61-1.42-1.24-1.42-1.24s-0.63-0.58-1.24-1.42c-0.61-0.84-1.94-0.43-2.35,0.14
			c-0.47,0.66-1.05,2.32-2.38,3.96c-0.36,0.45-0.63,0.43-0.74,0.39c-0.57-0.43-1.16-0.82-1.78-1.19c-0.08-0.09-0.2-0.33,0.08-0.83
			c1.01-1.86,2.32-3.02,2.75-3.72c0.37-0.59,0.23-1.98-0.77-2.22c-1-0.24-1.78-0.6-1.78-0.6s-0.8-0.3-1.68-0.84
			c-0.88-0.54-1.96,0.35-2.12,1.03c-0.18,0.8-0.08,2.54-0.68,4.57c-0.16,0.54-0.4,0.63-0.52,0.64c-0.69-0.18-1.39-0.31-2.1-0.41
			c-0.1-0.05-0.31-0.22-0.25-0.8c0.22-2.11,0.99-3.68,1.12-4.49c0.11-0.69-0.54-1.92-1.56-1.76c-0.91,0.14-1.69,0.13-1.84,0.13
			v50.53C73.68,156.17,74.46,156.16,75.37,156.3z"/>
	</g>
	<path class="st5" d="M71.69,156.41c-1.02,0.16-1.68-1.07-1.56-1.76c0.13-0.81,0.9-2.38,1.12-4.49c0.06-0.58-0.14-0.75-0.25-0.8
		c-0.71-0.1-1.42-0.24-2.1-0.41c-0.12,0.01-0.36,0.11-0.52,0.64c-0.6,2.03-0.5,3.78-0.68,4.57c-0.16,0.68-1.24,1.57-2.12,1.03
		c-0.88-0.54-1.68-0.84-1.68-0.84s-0.78-0.36-1.78-0.6c-1-0.24-1.14-1.63-0.77-2.22c0.43-0.69,1.74-1.85,2.75-3.72
		c0.28-0.51,0.16-0.75,0.08-0.83c-0.62-0.36-1.21-0.76-1.78-1.19c-0.11-0.04-0.38-0.05-0.74,0.39c-1.33,1.65-1.9,3.3-2.38,3.96
		c-0.41,0.57-1.74,0.98-2.35,0.14c-0.61-0.84-1.24-1.42-1.24-1.42s-0.58-0.63-1.42-1.24c-0.84-0.61-0.43-1.94,0.14-2.35
		c0.66-0.47,2.32-1.05,3.96-2.38c0.45-0.36,0.43-0.63,0.39-0.74c-0.43-0.57-0.82-1.16-1.19-1.78c-0.09-0.08-0.33-0.2-0.83,0.08
		c-1.86,1.01-3.02,2.32-3.72,2.75c-0.59,0.37-1.98,0.23-2.22-0.77s-0.6-1.78-0.6-1.78s-0.3-0.8-0.84-1.68
		c-0.54-0.88,0.35-1.96,1.03-2.12c0.8-0.18,2.54-0.08,4.57-0.68c0.54-0.16,0.63-0.4,0.64-0.52c-0.18-0.69-0.31-1.39-0.41-2.1
		c-0.05-0.1-0.22-0.31-0.8-0.25c-2.11,0.22-3.68,0.99-4.49,1.12c-0.69,0.11-1.92-0.54-1.76-1.56c0.16-1.02,0.13-1.87,0.13-1.87
		s0.03-0.85-0.13-1.87c-0.16-1.02,1.07-1.68,1.76-1.56c0.81,0.13,2.38,0.9,4.49,1.12c0.58,0.06,0.75-0.14,0.8-0.25
		c0.1-0.72,0.24-1.42,0.41-2.1c-0.01-0.12-0.11-0.36-0.64-0.52c-2.03-0.6-3.78-0.5-4.57-0.68c-0.68-0.16-1.57-1.24-1.03-2.12
		c0.54-0.88,0.84-1.68,0.84-1.68s0.36-0.78,0.6-1.78c0.24-1,1.63-1.14,2.22-0.77c0.69,0.43,1.85,1.74,3.72,2.75
		c0.51,0.28,0.75,0.16,0.83,0.08c0.36-0.62,0.76-1.21,1.19-1.78c0.04-0.11,0.05-0.38-0.39-0.74c-1.65-1.33-3.3-1.9-3.96-2.38
		c-0.57-0.41-0.98-1.74-0.14-2.35c0.84-0.61,1.42-1.24,1.42-1.24s0.63-0.58,1.24-1.42c0.61-0.84,1.94-0.43,2.35,0.14
		c0.47,0.66,1.05,2.32,2.38,3.96c0.36,0.45,0.63,0.43,0.74,0.39c0.57-0.43,1.16-0.82,1.78-1.19c0.08-0.09,0.2-0.33-0.08-0.83
		c-1.01-1.86-2.32-3.02-2.75-3.72c-0.37-0.59-0.23-1.98,0.77-2.22c1-0.24,1.78-0.6,1.78-0.6s0.8-0.3,1.68-0.84
		c0.88-0.54,1.96,0.35,2.12,1.03c0.18,0.8,0.08,2.54,0.68,4.57c0.16,0.54,0.4,0.63,0.52,0.64c0.69-0.18,1.39-0.31,2.1-0.41
		c0.1-0.05,0.31-0.22,0.25-0.8c-0.22-2.11-0.99-3.68-1.12-4.49c-0.11-0.69,0.54-1.92,1.56-1.76c0.91,0.14,1.69,0.13,1.84,0.13v50.53
		C73.37,156.28,72.6,156.27,71.69,156.41z"/>
	<g class="st4">
		<g>
			<path class="st2" d="M322.66,151.78l7.14-40.4h9.4c6.19,0,10.23,3.69,8.75,11.84l-2.97,16.96c-1.43,7.97-5.53,11.6-11.78,11.6
				H322.66z M333.2,147.2c3.15,0,5.89-2.14,6.84-7.38l2.92-16.48c0.83-5.18-1.07-7.38-4.23-7.38h-4.76l-5.47,31.24H333.2z"/>
			<path class="st2" d="M349.09,143.03l2.14-11.9c1.07-6.01,4.17-9.1,8.57-9.1c2.68,0,4.82,1.49,5.3,3.81l0.59-3.21h4.76
				l-5.18,29.16h-4.76l0.6-2.86c-1.31,2.26-3.27,3.45-5.95,3.45C350.69,152.37,348.02,149.16,349.09,143.03z M362.06,142.91
				l1.96-11.31c0.66-3.39-0.59-5.24-3.09-5.24c-2.5,0-4.4,1.84-5,5.18l-2.02,11.43c-0.59,3.27,0.71,5.06,3.27,5.06
				C359.62,148.03,361.46,146.25,362.06,142.91z"/>
			<path class="st2" d="M382.47,151.48c-1.25,0.54-2.74,0.89-4.52,0.89c-3.99,0-5.89-2.26-5.12-7.02l3.33-18.8h-3.21l0.71-3.93
				c3.87,0,5.18-0.18,6.96-9.52h3.15l-1.73,9.52h5.36l-0.72,3.93h-5.71l-3.15,17.97c-0.48,2.56,0.42,3.39,1.78,3.39
				c1.31,0,2.62-0.54,3.69-1.19L382.47,151.48z"/>
			<path class="st2" d="M386.69,143.03l2.14-11.9c1.07-6.01,4.17-9.1,8.57-9.1c2.68,0,4.82,1.49,5.3,3.81l0.59-3.21h4.76
				l-5.18,29.16h-4.76l0.6-2.86c-1.31,2.26-3.27,3.45-5.95,3.45C388.3,152.37,385.62,149.16,386.69,143.03z M399.67,142.91
				l1.96-11.31c0.66-3.39-0.59-5.24-3.09-5.24c-2.5,0-4.4,1.84-5,5.18l-2.02,11.43c-0.59,3.27,0.71,5.06,3.27,5.06
				C397.23,148.03,399.07,146.25,399.67,142.91z"/>
			<path class="st2" d="M422.52,151.78h-5l7.14-40.4h9.64c5.71,0,9.16,3.03,8.09,9.22l-1.31,7.2c-1.01,5.89-4.46,8.93-10.06,8.93
				h-5.89L422.52,151.78z M436.15,127.32l1.13-6.37c0.6-3.45-1.07-5-4.17-5h-4.28l-2.92,16.48h4.4
				C433.35,132.44,435.55,130.89,436.15,127.32z"/>
			<path class="st2" d="M442.16,142.79l2.02-11.31c1.13-6.37,5-9.46,10-9.46c5.06,0,8.87,3.09,7.68,9.64l-2.02,11.37
				c-1.07,6.31-4.94,9.34-9.94,9.34C444.9,152.37,441.03,149.34,442.16,142.79z M455.07,142.97l2.02-11.43
				c0.59-3.33-0.65-5.18-3.21-5.18c-2.44,0-4.28,1.84-4.88,5.24l-2.02,11.31c-0.59,3.33,0.65,5.12,3.09,5.12
				C452.57,148.03,454.54,146.25,455.07,142.97z"/>
			<path class="st2" d="M468.28,122.62h4.82l-0.59,3.57c1.61-3.04,3.99-4.17,7.97-4.17l-1.07,5.53c-0.54-0.3-1.84-0.48-2.32-0.48
				c-3.93,0-5.3,2.92-6.31,8.51l-2.8,16.18h-4.82L468.28,122.62z"/>
			<path class="st2" d="M490.18,151.48c-1.25,0.54-2.74,0.89-4.52,0.89c-3.99,0-5.89-2.26-5.12-7.02l3.33-18.8h-3.21l0.71-3.93
				c3.87,0,5.18-0.18,6.96-9.52h3.15l-1.73,9.52h5.36l-0.72,3.93h-5.71l-3.15,17.97c-0.48,2.56,0.42,3.39,1.79,3.39
				c1.31,0,2.62-0.54,3.69-1.19L490.18,151.48z"/>
			<path class="st2" d="M494.41,143.03l2.14-11.9c1.07-6.01,4.17-9.1,8.57-9.1c2.68,0,4.82,1.49,5.3,3.81l0.59-3.21h4.76
				l-5.18,29.16h-4.76l0.6-2.86c-1.31,2.26-3.27,3.45-5.95,3.45C496.01,152.37,493.34,149.16,494.41,143.03z M507.38,142.91
				l1.96-11.31c0.66-3.39-0.59-5.24-3.09-5.24c-2.5,0-4.4,1.84-5,5.18l-2.02,11.43c-0.59,3.27,0.71,5.06,3.27,5.06
				C504.94,148.03,506.79,146.25,507.38,142.91z"/>
			<path class="st2" d="M520.83,151.78h-2.2c-1.96,0-2.44-0.83-2.08-2.8l6.61-37.61h4.82L520.83,151.78z"/>
		</g>
		<g>
			<g>
				<path d="M141.89,136.73l-0.55,2.99c-1.53,8.62-6.6,12.65-13.26,12.65c-7.03,0-12.16-4.03-10.51-13.45l2.93-16.62
					c1.53-8.56,6.3-12.65,13.26-12.65c6.72,0,12.16,4.09,10.57,13.14l-0.49,2.57l-7.27,0.49l0.37-2.51
					c0.73-3.73-0.67-5.26-3.06-5.26c-2.38,0-4.28,1.53-4.95,5.26l-2.69,15.22c-0.67,3.91,0.73,5.38,3.12,5.38
					c2.38,0,4.22-1.47,4.95-5.38l0.43-2.38L141.89,136.73z"/>
				<path d="M174.29,123.04l-2.93,16.68c-1.47,8.62-6.91,12.65-14,12.65c-7.03,0-12.77-4.03-11.18-13.45l2.93-16.62
					c1.53-8.56,6.97-12.65,14.06-12.65C170.13,109.65,175.94,113.75,174.29,123.04z M157.6,123.34l-2.75,15.22
					c-0.67,3.91,0.73,5.38,3.12,5.38c2.38,0,4.28-1.47,4.95-5.38l2.69-15.22c0.67-3.73-0.73-5.26-3.06-5.26
					C160.17,118.09,158.21,119.62,157.6,123.34z"/>
				<path d="M198,110.26h8.07l-15.4,41.5h-10.21l-1.1-41.5h9.41l-0.18,27.01L198,110.26z"/>
				<path d="M219.09,110.26l-7.33,41.5h-8.56l7.33-41.5H219.09z"/>
				<path d="M218.3,151.76l7.33-41.5h11.18c7.03,0,12.16,3.73,10.51,12.9l-2.87,16.32c-1.53,8.62-6.11,12.28-13.14,12.28H218.3z
					 M231.07,143.7c2.38,0,4.28-1.47,4.95-5.38l2.63-14.73c0.61-3.73-0.73-5.26-3.12-5.26h-2.69l-4.52,25.36H231.07z"/>
				<path d="M251.85,130.03h15.65l-1.16,6.3h-15.59L251.85,130.03z"/>
				<path d="M276.3,114.05l7.52-3.79h1.83l-7.33,41.5h-8.68L276.3,114.05z"/>
				<path d="M302.28,134.16c-1.34,1.71-3.24,3.3-6.54,3.3c-5.32,0-8.68-3.18-7.52-9.96l1.04-5.5c1.4-8.31,5.62-12.35,12.89-12.35
					c8.01,0,12.28,4.03,10.82,12.35l-2.99,16.87c-1.47,8.25-5.44,13.51-13.51,13.51c-8.13,0-11.49-4.16-10.33-10.57l0.24-1.59
					l7.27-0.55l-0.06,0.73c-0.49,2.57,0.37,4.22,2.93,4.22s4.34-2.08,4.95-5.56L302.28,134.16z M304.29,122.24
					c0.55-3.12-0.43-4.89-2.93-4.89c-2.57,0-4.09,1.77-4.71,4.89l-0.73,4.22c-0.49,2.93,0.3,4.89,2.93,4.89
					c2.63,0,4.16-1.96,4.65-4.89L304.29,122.24z"/>
			</g>
		</g>
	</g>
	<g class="st4">
		<path class="st6" d="M113.51,177.7l-2.08,3.64h-2.5l9.44-16.59l4.48,16.59h-2.4l-0.93-3.64H113.51z M114.61,175.71h4.37
			l-1.38-5.51L114.61,175.71z"/>
		<path class="st6" d="M132.92,172.8l-0.4,2.26c-0.42-0.58-0.84-1-1.24-1.25c-0.4-0.25-0.87-0.37-1.43-0.37
			c-0.84,0-1.55,0.31-2.13,0.93c-0.57,0.62-0.89,1.42-0.94,2.4c-0.05,0.92,0.17,1.65,0.65,2.2c0.49,0.56,1.14,0.83,1.95,0.83
			c0.78,0,1.61-0.34,2.48-1.01l-0.41,2.34c-0.87,0.35-1.7,0.52-2.48,0.52c-1.38,0-2.49-0.45-3.31-1.35
			c-0.82-0.9-1.19-2.07-1.11-3.51c0.08-1.48,0.61-2.71,1.59-3.7c0.99-1,2.18-1.49,3.57-1.49
			C130.86,171.58,131.93,171.99,132.92,172.8z"/>
		<path class="st6" d="M142.34,172.8l-0.4,2.26c-0.42-0.58-0.84-1-1.24-1.25c-0.4-0.25-0.87-0.37-1.43-0.37
			c-0.84,0-1.55,0.31-2.13,0.93c-0.57,0.62-0.89,1.42-0.94,2.4c-0.05,0.92,0.17,1.65,0.65,2.2c0.49,0.56,1.14,0.83,1.95,0.83
			c0.78,0,1.61-0.34,2.48-1.01l-0.41,2.34c-0.87,0.35-1.7,0.52-2.48,0.52c-1.38,0-2.49-0.45-3.31-1.35
			c-0.82-0.9-1.19-2.07-1.11-3.51c0.08-1.48,0.61-2.71,1.59-3.7c0.99-1,2.18-1.49,3.57-1.49
			C140.28,171.58,141.35,171.99,142.34,172.8z"/>
		<path class="st6" d="M145.64,177.41c-0.04,0.7,0.17,1.27,0.63,1.72c0.46,0.45,1.08,0.67,1.83,0.67c1.04,0,1.85-0.39,2.45-1.16
			l1.61,0.91c-0.62,0.78-1.24,1.32-1.86,1.63c-0.63,0.31-1.41,0.47-2.33,0.47c-1.46,0-2.61-0.43-3.43-1.29
			c-0.82-0.86-1.2-2.02-1.12-3.46c0.08-1.51,0.62-2.78,1.63-3.79c1-1.01,2.23-1.51,3.68-1.51c1.4,0,2.49,0.45,3.25,1.36
			c0.77,0.92,1.12,2.14,1.04,3.68c-0.01,0.16-0.03,0.42-0.07,0.78H145.64z M150.82,175.62c-0.16-1.46-0.93-2.19-2.3-2.19
			c-1.3,0-2.19,0.73-2.66,2.19H150.82z"/>
		<path class="st6" d="M159.88,164.4l-2.96,16.94h-2.22l2.97-16.94H159.88z"/>
		<path class="st6" d="M162.49,177.41c-0.04,0.7,0.17,1.27,0.63,1.72c0.46,0.45,1.08,0.67,1.83,0.67c1.04,0,1.85-0.39,2.45-1.16
			l1.61,0.91c-0.62,0.78-1.24,1.32-1.86,1.63c-0.63,0.31-1.41,0.47-2.33,0.47c-1.46,0-2.61-0.43-3.43-1.29
			c-0.82-0.86-1.2-2.02-1.12-3.46c0.08-1.51,0.62-2.78,1.63-3.79c1-1.01,2.23-1.51,3.68-1.51c1.4,0,2.49,0.45,3.25,1.36
			c0.77,0.92,1.12,2.14,1.04,3.68c-0.01,0.16-0.03,0.42-0.07,0.78H162.49z M167.67,175.62c-0.16-1.46-0.93-2.19-2.3-2.19
			c-1.3,0-2.19,0.73-2.66,2.19H167.67z"/>
		<path class="st6" d="M175.42,171.89l-0.14,0.81c0.79-0.71,1.56-1.06,2.32-1.06c0.67,0,1.26,0.24,1.79,0.73l-1.51,1.83
			c-0.39-0.35-0.79-0.52-1.2-0.52c-0.28,0-0.53,0.06-0.75,0.17c-0.22,0.11-0.41,0.28-0.58,0.52c-0.17,0.24-0.32,0.54-0.44,0.92
			c-0.12,0.37-0.23,0.82-0.32,1.34l-0.83,4.72h-2.22l1.66-9.45H175.42z"/>
		<path class="st6" d="M190.19,171.89l-1.66,9.45h-2.22l0.18-1.02c-0.99,0.83-2,1.24-3.01,1.24c-1.25,0-2.25-0.42-2.99-1.27
			c-0.74-0.85-1.08-1.95-1.01-3.3c0.08-1.56,0.6-2.84,1.56-3.83c0.97-1,2.17-1.49,3.6-1.49c0.68,0,1.25,0.11,1.71,0.33
			c0.47,0.22,0.94,0.6,1.41,1.14l0.22-1.24H190.19z M187.26,176.34c0.04-0.84-0.16-1.51-0.62-2.04c-0.45-0.53-1.06-0.79-1.82-0.79
			c-0.83,0-1.54,0.32-2.14,0.97c-0.6,0.66-0.92,1.46-0.97,2.41c-0.04,0.83,0.16,1.51,0.6,2.04s1.03,0.79,1.76,0.79
			c0.82,0,1.54-0.33,2.17-0.99C186.87,178.06,187.21,177.26,187.26,176.34z"/>
		<path class="st6" d="M195.3,173.95l-1.3,7.39h-2.22l1.3-7.39h-1.25l0.36-2.06h1.25l0.77-4.38h2.22l-0.77,4.38h2.05l-0.36,2.06
			H195.3z"/>
		<path class="st6" d="M201.52,171.89l-1.66,9.45h-2.22l1.66-9.45H201.52z M202.45,167.39c-0.02,0.32-0.15,0.6-0.39,0.83
			c-0.25,0.24-0.53,0.35-0.86,0.35c-0.33,0-0.61-0.12-0.83-0.36c-0.22-0.25-0.32-0.54-0.31-0.87c0.02-0.33,0.15-0.6,0.38-0.83
			c0.25-0.23,0.53-0.35,0.85-0.35c0.33,0,0.61,0.12,0.83,0.37C202.36,166.77,202.47,167.06,202.45,167.39z"/>
		<path class="st6" d="M206.83,171.89l-0.15,0.87c0.91-0.73,1.82-1.1,2.72-1.1c0.92,0,1.65,0.26,2.18,0.77
			c0.51,0.52,0.75,1.22,0.7,2.11c-0.03,0.48-0.1,1.06-0.21,1.73l-0.9,5.08h-2.21l0.97-5.56c0.04-0.21,0.07-0.39,0.08-0.55
			c0.02-0.16,0.03-0.3,0.04-0.43c0.04-0.86-0.39-1.28-1.32-1.28c-0.57,0-1.07,0.17-1.49,0.52c-0.35,0.27-0.61,0.61-0.79,1
			c-0.1,0.2-0.18,0.45-0.26,0.74c-0.08,0.29-0.15,0.63-0.21,1.01l-0.8,4.55h-2.22l1.66-9.45H206.83z"/>
		<path class="st6" d="M225.42,171.89l-1.66,9.52c-0.1,0.57-0.21,1.06-0.32,1.48c-0.11,0.42-0.23,0.77-0.36,1.06
			c-0.26,0.59-0.64,1.09-1.12,1.52c-0.94,0.8-2.12,1.2-3.55,1.2c-1.48,0-2.66-0.39-3.53-1.16c-0.45-0.39-0.75-0.83-0.91-1.32
			c-0.16-0.45-0.22-1.09-0.18-1.92h2.15c0.01,0.89,0.2,1.54,0.58,1.94c0.38,0.41,0.99,0.61,1.83,0.61c0.91,0,1.61-0.24,2.11-0.73
			c0.5-0.48,0.84-1.26,1.02-2.31l0.23-1.29c-0.97,0.72-1.98,1.07-3.01,1.07c-1.28,0-2.32-0.44-3.11-1.31
			c-0.79-0.9-1.15-2.01-1.08-3.35c0.08-1.5,0.63-2.75,1.65-3.74c1.03-1,2.28-1.49,3.74-1.49c0.7,0,1.27,0.1,1.69,0.31
			c0.46,0.2,0.94,0.57,1.42,1.09l0.2-1.17H225.42z M222.64,176.37c0.04-0.86-0.18-1.54-0.67-2.07c-0.49-0.53-1.16-0.79-2.01-0.79
			c-0.88,0-1.62,0.32-2.24,0.96c-0.61,0.64-0.94,1.44-0.99,2.4c-0.04,0.84,0.17,1.53,0.63,2.07c0.47,0.52,1.12,0.77,1.95,0.77
			c0.92,0,1.69-0.31,2.31-0.94C222.25,178.14,222.59,177.34,222.64,176.37z"/>
		<path class="st6" d="M237.09,171.89l-0.14,0.81c0.79-0.71,1.56-1.06,2.32-1.06c0.67,0,1.26,0.24,1.79,0.73l-1.51,1.83
			c-0.39-0.35-0.79-0.52-1.2-0.52c-0.28,0-0.53,0.06-0.75,0.17c-0.22,0.11-0.41,0.28-0.58,0.52c-0.17,0.24-0.32,0.54-0.44,0.92
			c-0.12,0.37-0.23,0.82-0.32,1.34l-0.83,4.72h-2.22l1.66-9.45H237.09z"/>
		<path class="st6" d="M243.42,177.41c-0.04,0.7,0.17,1.27,0.63,1.72c0.46,0.45,1.08,0.67,1.83,0.67c1.04,0,1.85-0.39,2.45-1.16
			l1.61,0.91c-0.62,0.78-1.24,1.32-1.86,1.63c-0.63,0.31-1.41,0.47-2.33,0.47c-1.46,0-2.61-0.43-3.43-1.29
			c-0.82-0.86-1.2-2.02-1.12-3.46c0.08-1.51,0.62-2.78,1.63-3.79c1-1.01,2.23-1.51,3.68-1.51c1.4,0,2.49,0.45,3.25,1.36
			c0.77,0.92,1.12,2.14,1.04,3.68c-0.01,0.16-0.03,0.42-0.07,0.78H243.42z M248.6,175.62c-0.16-1.46-0.93-2.19-2.3-2.19
			c-1.3,0-2.19,0.73-2.66,2.19H248.6z"/>
		<path class="st6" d="M259.71,172.93l-1.32,1.25c-0.56-0.53-1.09-0.79-1.59-0.79c-0.34,0-0.63,0.1-0.86,0.29
			c-0.23,0.19-0.36,0.43-0.37,0.71c-0.01,0.27,0.07,0.5,0.24,0.69c0.18,0.19,0.55,0.45,1.13,0.78c0.82,0.47,1.37,0.91,1.64,1.3
			c0.29,0.39,0.41,0.89,0.38,1.52c-0.05,0.9-0.4,1.61-1.05,2.16c-0.66,0.54-1.5,0.8-2.52,0.8c-1.38,0-2.5-0.62-3.34-1.88l1.51-1.01
			c0.56,0.72,1.17,1.07,1.85,1.07c0.38,0,0.69-0.1,0.93-0.3c0.24-0.2,0.37-0.46,0.39-0.78c0.01-0.28-0.07-0.51-0.26-0.68
			c-0.09-0.09-0.25-0.21-0.47-0.36c-0.23-0.15-0.53-0.34-0.92-0.55c-0.69-0.39-1.16-0.78-1.41-1.15c-0.25-0.39-0.37-0.88-0.34-1.44
			c0.04-0.86,0.4-1.57,1.05-2.13c0.66-0.56,1.47-0.84,2.44-0.84C257.89,171.58,258.85,172.03,259.71,172.93z"/>
		<path class="st6" d="M263.25,177.41c-0.04,0.7,0.17,1.27,0.63,1.72c0.46,0.45,1.08,0.67,1.83,0.67c1.04,0,1.85-0.39,2.45-1.16
			l1.61,0.91c-0.62,0.78-1.24,1.32-1.86,1.63c-0.63,0.31-1.41,0.47-2.33,0.47c-1.46,0-2.61-0.43-3.43-1.29
			c-0.82-0.86-1.2-2.02-1.12-3.46c0.08-1.51,0.62-2.78,1.63-3.79c1-1.01,2.23-1.51,3.68-1.51c1.4,0,2.49,0.45,3.25,1.36
			c0.77,0.92,1.12,2.14,1.04,3.68c-0.01,0.16-0.03,0.42-0.07,0.78H263.25z M268.43,175.62c-0.16-1.46-0.93-2.19-2.3-2.19
			c-1.3,0-2.19,0.73-2.66,2.19H268.43z"/>
		<path class="st6" d="M283.23,171.89l-1.66,9.45h-2.22l0.18-1.02c-0.99,0.83-2,1.24-3.01,1.24c-1.25,0-2.25-0.42-2.99-1.27
			c-0.74-0.85-1.08-1.95-1.01-3.3c0.08-1.56,0.6-2.84,1.55-3.83c0.97-1,2.17-1.49,3.6-1.49c0.67,0,1.24,0.11,1.71,0.33
			c0.47,0.22,0.94,0.6,1.41,1.14l0.22-1.24H283.23z M280.3,176.34c0.04-0.84-0.16-1.51-0.62-2.04c-0.45-0.53-1.06-0.79-1.82-0.79
			c-0.83,0-1.54,0.32-2.14,0.97c-0.6,0.66-0.92,1.46-0.97,2.41c-0.04,0.83,0.15,1.51,0.59,2.04c0.44,0.53,1.03,0.79,1.76,0.79
			c0.82,0,1.54-0.33,2.17-0.99C279.91,178.06,280.25,177.26,280.3,176.34z"/>
		<path class="st6" d="M288.55,171.89l-0.14,0.81c0.79-0.71,1.56-1.06,2.32-1.06c0.67,0,1.26,0.24,1.79,0.73l-1.51,1.83
			c-0.39-0.35-0.79-0.52-1.2-0.52c-0.28,0-0.53,0.06-0.75,0.17c-0.22,0.11-0.41,0.28-0.58,0.52c-0.17,0.24-0.32,0.54-0.44,0.92
			c-0.12,0.37-0.23,0.82-0.32,1.34l-0.83,4.72h-2.22l1.66-9.45H288.55z"/>
		<path class="st6" d="M301.02,172.8l-0.4,2.26c-0.42-0.58-0.84-1-1.24-1.25c-0.4-0.25-0.87-0.37-1.43-0.37
			c-0.84,0-1.55,0.31-2.13,0.93c-0.57,0.62-0.89,1.42-0.94,2.4c-0.05,0.92,0.17,1.65,0.65,2.2c0.49,0.56,1.14,0.83,1.95,0.83
			c0.78,0,1.61-0.34,2.48-1.01l-0.41,2.34c-0.87,0.35-1.7,0.52-2.48,0.52c-1.38,0-2.49-0.45-3.31-1.35
			c-0.82-0.9-1.19-2.07-1.11-3.51c0.08-1.48,0.61-2.71,1.59-3.7c0.99-1,2.18-1.49,3.57-1.49
			C298.96,171.58,300.03,171.99,301.02,172.8z"/>
		<path class="st6" d="M307.33,164.4l-1.46,8.3c0.93-0.69,1.85-1.03,2.76-1.03c0.92,0,1.65,0.24,2.17,0.73
			c0.54,0.48,0.79,1.11,0.75,1.9c-0.01,0.19-0.03,0.4-0.06,0.64c-0.03,0.24-0.07,0.51-0.12,0.81l-0.99,5.61h-2.22l1-5.73
			c0.06-0.31,0.09-0.58,0.1-0.83c0.04-0.84-0.43-1.26-1.42-1.26c-1.42,0-2.29,0.96-2.63,2.88l-0.87,4.95h-2.22l2.97-16.94H307.33z"
			/>
		<path class="st6" d="M323.5,173.95l-1.3,7.39h-2.22l1.3-7.39h-1.25l0.36-2.06h1.25l0.77-4.38h2.22l-0.77,4.38h2.05l-0.36,2.06
			H323.5z"/>
		<path class="st6" d="M331.25,164.4l-1.46,8.3c0.93-0.69,1.85-1.03,2.76-1.03c0.92,0,1.65,0.24,2.17,0.73
			c0.54,0.48,0.79,1.11,0.75,1.9c-0.01,0.19-0.03,0.4-0.06,0.64c-0.03,0.24-0.07,0.51-0.12,0.81l-0.99,5.61h-2.22l1-5.73
			c0.06-0.31,0.09-0.58,0.1-0.83c0.04-0.84-0.43-1.26-1.42-1.26c-1.42,0-2.29,0.96-2.63,2.88l-0.87,4.95h-2.22l2.97-16.94H331.25z"
			/>
		<path class="st6" d="M341.28,171.89l-0.14,0.81c0.79-0.71,1.56-1.06,2.32-1.06c0.67,0,1.26,0.24,1.79,0.73l-1.51,1.83
			c-0.39-0.35-0.79-0.52-1.2-0.52c-0.28,0-0.53,0.06-0.75,0.17c-0.22,0.11-0.41,0.28-0.58,0.52c-0.17,0.24-0.32,0.54-0.44,0.92
			c-0.12,0.37-0.23,0.82-0.32,1.34l-0.83,4.72h-2.22l1.66-9.45H341.28z"/>
		<path class="st6" d="M355.81,176.52c-0.08,1.44-0.64,2.66-1.7,3.64c-1.05,0.98-2.3,1.47-3.77,1.47c-1.53,0-2.76-0.46-3.68-1.39
			c-0.93-0.94-1.35-2.12-1.28-3.55c0.08-1.46,0.65-2.68,1.71-3.65c1.07-0.98,2.36-1.46,3.89-1.46c1.5,0,2.69,0.46,3.59,1.38
			C355.47,173.87,355.89,175.06,355.81,176.52z M353.58,176.41c0.05-0.91-0.18-1.63-0.68-2.16c-0.5-0.55-1.18-0.82-2.03-0.82
			c-0.89,0-1.64,0.3-2.26,0.91c-0.61,0.62-0.95,1.39-0.99,2.32c-0.05,0.94,0.19,1.69,0.7,2.26c0.52,0.58,1.21,0.87,2.08,0.87
			s1.6-0.32,2.2-0.95C353.2,178.21,353.53,177.4,353.58,176.41z"/>
		<path class="st6" d="M367.28,171.89l-0.96,5.5c-0.08,0.47-0.17,0.88-0.26,1.22s-0.2,0.64-0.31,0.87
			c-0.21,0.45-0.55,0.85-1.01,1.19c-0.78,0.59-1.78,0.88-3.01,0.88c-1.16,0-2.08-0.3-2.74-0.89c-0.66-0.6-0.97-1.41-0.92-2.42
			c0.01-0.15,0.03-0.33,0.05-0.54c0.03-0.21,0.06-0.44,0.11-0.71l0.89-5.11h2.22l-0.93,5.31c-0.04,0.23-0.07,0.43-0.09,0.6
			c-0.02,0.17-0.04,0.31-0.04,0.43c-0.05,1,0.51,1.5,1.68,1.5c0.64,0,1.11-0.16,1.43-0.49c0.32-0.33,0.55-0.9,0.69-1.73l0.99-5.61
			H367.28z"/>
		<path class="st6" d="M379.88,171.89l-1.66,9.52c-0.1,0.57-0.21,1.06-0.32,1.48c-0.11,0.42-0.23,0.77-0.36,1.06
			c-0.26,0.59-0.64,1.09-1.12,1.52c-0.94,0.8-2.12,1.2-3.55,1.2c-1.48,0-2.66-0.39-3.53-1.16c-0.45-0.39-0.75-0.83-0.91-1.32
			c-0.16-0.45-0.22-1.09-0.18-1.92h2.15c0.01,0.89,0.2,1.54,0.58,1.94c0.38,0.41,0.99,0.61,1.83,0.61c0.91,0,1.62-0.24,2.12-0.73
			c0.5-0.48,0.84-1.26,1.02-2.31l0.23-1.29c-0.97,0.72-1.98,1.07-3.01,1.07c-1.28,0-2.32-0.44-3.11-1.31
			c-0.79-0.9-1.15-2.01-1.08-3.35c0.08-1.5,0.63-2.75,1.65-3.74c1.03-1,2.28-1.49,3.74-1.49c0.7,0,1.27,0.1,1.69,0.31
			c0.46,0.2,0.94,0.57,1.42,1.09l0.2-1.17H379.88z M377.1,176.37c0.04-0.86-0.18-1.54-0.67-2.07c-0.49-0.53-1.16-0.79-2.01-0.79
			c-0.88,0-1.62,0.32-2.24,0.96c-0.61,0.64-0.94,1.44-0.99,2.4c-0.04,0.84,0.17,1.53,0.63,2.07c0.47,0.52,1.12,0.77,1.95,0.77
			c0.92,0,1.68-0.31,2.31-0.94C376.71,178.14,377.05,177.34,377.1,176.37z"/>
		<path class="st6" d="M386.52,164.4l-1.46,8.3c0.93-0.69,1.85-1.03,2.76-1.03c0.92,0,1.65,0.24,2.17,0.73
			c0.54,0.48,0.79,1.11,0.75,1.9c-0.01,0.19-0.03,0.4-0.06,0.64c-0.03,0.24-0.07,0.51-0.12,0.81l-0.99,5.61h-2.22l1-5.73
			c0.06-0.31,0.09-0.58,0.1-0.83c0.04-0.84-0.43-1.26-1.42-1.26c-1.42,0-2.29,0.96-2.63,2.88l-0.87,4.95h-2.22l2.97-16.94H386.52z"
			/>
		<path class="st6" d="M411.5,164.4l-2.97,16.94h-2.21l0.17-1.01c-0.57,0.49-1.07,0.82-1.48,0.99c-0.4,0.16-0.9,0.24-1.48,0.24
			c-1.32,0-2.38-0.44-3.18-1.31c-0.8-0.88-1.16-2.02-1.09-3.41c0.08-1.48,0.6-2.72,1.58-3.7s2.16-1.47,3.56-1.47
			c0.72,0,1.31,0.12,1.79,0.37c0.49,0.25,1,0.69,1.53,1.29l1.56-8.93H411.5z M407.23,176.2c0.04-0.8-0.17-1.45-0.64-1.95
			s-1.1-0.74-1.91-0.74c-0.87,0-1.61,0.32-2.21,0.97c-0.6,0.65-0.93,1.47-0.98,2.46c-0.04,0.84,0.16,1.51,0.63,2.02
			c0.46,0.5,1.1,0.75,1.91,0.75c0.84,0,1.57-0.34,2.19-1.02C406.84,178.02,407.18,177.19,407.23,176.2z"/>
		<path class="st6" d="M422.73,171.89l-1.66,9.45h-2.22l0.18-1.02c-0.99,0.83-2,1.24-3.01,1.24c-1.25,0-2.25-0.42-2.99-1.27
			c-0.75-0.85-1.08-1.95-1.01-3.3c0.08-1.56,0.6-2.84,1.56-3.83c0.97-1,2.17-1.49,3.6-1.49c0.67,0,1.24,0.11,1.71,0.33
			c0.47,0.22,0.94,0.6,1.41,1.14l0.22-1.24H422.73z M419.8,176.34c0.04-0.84-0.16-1.51-0.62-2.04c-0.45-0.53-1.06-0.79-1.82-0.79
			c-0.83,0-1.54,0.32-2.14,0.97c-0.6,0.66-0.92,1.46-0.97,2.41c-0.04,0.83,0.15,1.51,0.59,2.04c0.44,0.53,1.03,0.79,1.76,0.79
			c0.82,0,1.54-0.33,2.17-0.99C419.41,178.06,419.75,177.26,419.8,176.34z"/>
		<path class="st6" d="M427.84,173.95l-1.3,7.39h-2.22l1.3-7.39h-1.25l0.36-2.06h1.25l0.77-4.38h2.22l-0.77,4.38h2.05l-0.36,2.06
			H427.84z"/>
		<path class="st6" d="M441.5,171.89l-1.66,9.45h-2.22l0.18-1.02c-0.99,0.83-2,1.24-3.01,1.24c-1.25,0-2.25-0.42-2.99-1.27
			c-0.75-0.85-1.08-1.95-1.01-3.3c0.08-1.56,0.6-2.84,1.56-3.83c0.97-1,2.17-1.49,3.6-1.49c0.67,0,1.24,0.11,1.71,0.33
			c0.47,0.22,0.94,0.6,1.41,1.14l0.22-1.24H441.5z M438.57,176.34c0.04-0.84-0.16-1.51-0.62-2.04c-0.45-0.53-1.06-0.79-1.82-0.79
			c-0.83,0-1.54,0.32-2.14,0.97c-0.6,0.66-0.92,1.46-0.97,2.41c-0.04,0.83,0.15,1.51,0.59,2.04c0.44,0.53,1.03,0.79,1.76,0.79
			c0.82,0,1.54-0.33,2.17-0.99C438.18,178.06,438.52,177.26,438.57,176.34z"/>
		<path class="st6" d="M456.52,172.93l-1.32,1.25c-0.56-0.53-1.09-0.79-1.59-0.79c-0.34,0-0.63,0.1-0.86,0.29
			c-0.23,0.19-0.36,0.43-0.37,0.71c-0.01,0.27,0.07,0.5,0.24,0.69c0.18,0.19,0.56,0.45,1.13,0.78c0.82,0.47,1.37,0.91,1.64,1.3
			c0.29,0.39,0.41,0.89,0.38,1.52c-0.05,0.9-0.4,1.61-1.05,2.16c-0.66,0.54-1.5,0.8-2.52,0.8c-1.38,0-2.5-0.62-3.34-1.88l1.51-1.01
			c0.56,0.72,1.17,1.07,1.85,1.07c0.38,0,0.69-0.1,0.93-0.3c0.24-0.2,0.37-0.46,0.39-0.78c0.01-0.28-0.07-0.51-0.25-0.68
			c-0.09-0.09-0.25-0.21-0.47-0.36c-0.23-0.15-0.53-0.34-0.92-0.55c-0.69-0.39-1.16-0.78-1.41-1.15c-0.25-0.39-0.36-0.88-0.34-1.44
			c0.04-0.86,0.4-1.57,1.05-2.13c0.66-0.56,1.47-0.84,2.44-0.84C454.7,171.58,455.66,172.03,456.52,172.93z"/>
		<path class="st6" d="M462.77,164.4l-1.46,8.3c0.93-0.69,1.85-1.03,2.76-1.03c0.92,0,1.65,0.24,2.17,0.73
			c0.54,0.48,0.79,1.11,0.75,1.9c-0.01,0.19-0.03,0.4-0.06,0.64c-0.03,0.24-0.07,0.51-0.12,0.81l-0.99,5.61h-2.22l1-5.73
			c0.06-0.31,0.09-0.58,0.1-0.83c0.04-0.84-0.43-1.26-1.42-1.26c-1.42,0-2.29,0.96-2.63,2.88l-0.87,4.95h-2.22l2.97-16.94H462.77z"
			/>
		<path class="st6" d="M479.86,171.89l-1.66,9.45h-2.22l0.18-1.02c-0.99,0.83-2,1.24-3.01,1.24c-1.25,0-2.25-0.42-2.99-1.27
			c-0.75-0.85-1.08-1.95-1.01-3.3c0.08-1.56,0.6-2.84,1.56-3.83c0.97-1,2.17-1.49,3.6-1.49c0.67,0,1.24,0.11,1.71,0.33
			c0.47,0.22,0.94,0.6,1.41,1.14l0.22-1.24H479.86z M476.92,176.34c0.04-0.84-0.16-1.51-0.62-2.04c-0.45-0.53-1.06-0.79-1.82-0.79
			c-0.83,0-1.54,0.32-2.14,0.97c-0.6,0.66-0.92,1.46-0.97,2.41c-0.04,0.83,0.15,1.51,0.59,2.04c0.44,0.53,1.03,0.79,1.76,0.79
			c0.82,0,1.54-0.33,2.17-0.99C476.54,178.06,476.88,177.26,476.92,176.34z"/>
		<path class="st6" d="M485.17,171.89l-0.14,0.81c0.79-0.71,1.56-1.06,2.32-1.06c0.67,0,1.26,0.24,1.79,0.73l-1.51,1.83
			c-0.39-0.35-0.79-0.52-1.2-0.52c-0.28,0-0.53,0.06-0.75,0.17c-0.22,0.11-0.41,0.28-0.58,0.52c-0.17,0.24-0.32,0.54-0.44,0.92
			c-0.12,0.37-0.23,0.82-0.32,1.34l-0.83,4.72h-2.22l1.66-9.45H485.17z"/>
		<path class="st6" d="M493.22,171.89l-1.66,9.45h-2.22l1.66-9.45H493.22z M494.15,167.39c-0.02,0.32-0.15,0.6-0.4,0.83
			c-0.25,0.24-0.53,0.35-0.86,0.35c-0.33,0-0.61-0.12-0.83-0.36c-0.22-0.25-0.32-0.54-0.31-0.87c0.02-0.33,0.15-0.6,0.38-0.83
			c0.25-0.23,0.53-0.35,0.85-0.35c0.33,0,0.61,0.12,0.83,0.37C494.06,166.77,494.17,167.06,494.15,167.39z"/>
		<path class="st6" d="M498.53,171.89l-0.15,0.87c0.91-0.73,1.82-1.1,2.72-1.1c0.92,0,1.65,0.26,2.18,0.77
			c0.51,0.52,0.75,1.22,0.7,2.11c-0.03,0.48-0.1,1.06-0.21,1.73l-0.9,5.08h-2.21l0.97-5.56c0.04-0.21,0.07-0.39,0.08-0.55
			c0.02-0.16,0.03-0.3,0.04-0.43c0.04-0.86-0.4-1.28-1.32-1.28c-0.57,0-1.07,0.17-1.49,0.52c-0.35,0.27-0.61,0.61-0.8,1
			c-0.1,0.2-0.18,0.45-0.26,0.74c-0.08,0.29-0.15,0.63-0.21,1.01l-0.8,4.55h-2.22l1.66-9.45H498.53z"/>
		<path class="st6" d="M517.12,171.89l-1.66,9.52c-0.1,0.57-0.21,1.06-0.32,1.48c-0.11,0.42-0.23,0.77-0.36,1.06
			c-0.26,0.59-0.64,1.09-1.12,1.52c-0.94,0.8-2.12,1.2-3.55,1.2c-1.48,0-2.66-0.39-3.53-1.16c-0.45-0.39-0.75-0.83-0.91-1.32
			c-0.16-0.45-0.22-1.09-0.18-1.92h2.15c0.01,0.89,0.2,1.54,0.58,1.94c0.38,0.41,0.99,0.61,1.83,0.61c0.91,0,1.62-0.24,2.12-0.73
			c0.5-0.48,0.84-1.26,1.02-2.31l0.23-1.29c-0.97,0.72-1.98,1.07-3.01,1.07c-1.28,0-2.32-0.44-3.11-1.31
			c-0.79-0.9-1.15-2.01-1.08-3.35c0.08-1.5,0.63-2.75,1.65-3.74c1.03-1,2.28-1.49,3.74-1.49c0.7,0,1.27,0.1,1.69,0.31
			c0.46,0.2,0.94,0.57,1.42,1.09l0.2-1.17H517.12z M514.33,176.37c0.04-0.86-0.18-1.54-0.67-2.07c-0.49-0.53-1.16-0.79-2.01-0.79
			c-0.88,0-1.62,0.32-2.24,0.96c-0.61,0.64-0.94,1.44-0.99,2.4c-0.04,0.84,0.17,1.53,0.63,2.07c0.47,0.52,1.12,0.77,1.95,0.77
			c0.92,0,1.68-0.31,2.31-0.94C513.94,178.14,514.28,177.34,514.33,176.37z"/>
	</g>
</g>
</svg>
